<?xml version="1.0" encoding="UTF-8"?>
<svg id="Capa_2" data-name="Capa 2" xmlns="http://www.w3.org/2000/svg" viewBox="0 0 266.06 261.29">
  <defs>
    <style>
      .cls-1 {
        fill: #343434;
      }

      .cls-2 {
        fill: #555;
      }

      .cls-3 {
        fill: #3d3d3d;
      }

      .cls-4 {
        fill: #e3edf5;
      }

      .cls-5 {
        fill: #d8d8d8;
      }

      .cls-6 {
        fill: #4b4b4b;
      }

      .cls-7 {
        fill: #222;
      }

      .cls-8 {
        fill: #393939;
      }

      .cls-9 {
        fill: #595a5a;
      }

      .cls-10 {
        fill: #e4f1fd;
      }

      .cls-11 {
        fill: #282828;
      }

      .cls-12 {
        fill: #f5fafe;
      }

      .cls-13 {
        fill: #36af94;
      }

      .cls-14 {
        fill: #424242;
      }

      .cls-15 {
        fill: #3a3a3a;
      }

      .cls-16 {
        fill: #bfe0fe;
      }

      .cls-17 {
        fill: #464646;
      }

      .cls-18 {
        fill: #5d5d5d;
      }

      .cls-19 {
        fill: #494949;
      }

      .cls-20 {
        fill: #d3e2ef;
      }

      .cls-21 {
        fill: #adadad;
      }

      .cls-22 {
        fill: #4f4f4f;
      }

      .cls-23 {
        fill: #373737;
      }

      .cls-24 {
        fill: #636363;
      }

      .cls-25 {
        fill: #474747;
      }

      .cls-26 {
        fill: #535353;
      }

      .cls-27 {
        fill: #515151;
      }

      .cls-28 {
        fill: #434343;
      }

      .cls-29 {
        fill: #191919;
      }

      .cls-30 {
        fill: #1a1a1a;
      }

      .cls-31 {
        fill: #525252;
      }

      .cls-32 {
        fill: #484848;
      }

      .cls-33 {
        fill: #595959;
      }

      .cls-34 {
        fill: #5b5b5b;
      }

      .cls-35 {
        fill: #404040;
      }
    </style>
  </defs>
  <g id="Capa_1-2" data-name="Capa 1">
    <path class="cls-23" d="M92.3,200.03c7.56,3.22,15.56,4.68,23.62,5.88,3.14,.47,4.51,.88,3.01,4.98-3.53,9.71-4.5,20.07-5.66,30.32-.53,4.62-.85,9.28-1.1,13.92-.35,6.51-.28,6.48-7.03,5.95-18.95-1.51-36.93-6.64-54.17-14.5-13.76-6.27-26.22-14.55-36.43-25.73C-2.35,202.35-3.49,181.2,5.81,159.01c8.4-20.06,22.82-35.32,40.3-47.85,6.5-4.66,13.36-8.69,20.83-11.67,2.29-.92,3.75-.69,5.8,.84,9.26,6.95,19.78,8.06,30.83,5.76,2.62-.54,5.48-1.49,7-3.59,3.35-4.64,7.09-3.16,11.21-1.73,8.01,2.78,16.01,5.57,23.41,9.78,.02,3.11-2.45,3.05-4.48,3.44-12.22,2.32-24.18,5.56-35.74,10.2-1.23,.49-2.5,.89-3.62,1.62-9.05,2.46-12.08,8.91-12.91,17.72-1.53,16.16-1.5,32.27-.54,48.42,.12,3.45-2.12,4.01-4.61,3.15-5.64-1.96-11.1-4.37-16.27-7.4-2.81-1.64-3.03-4.09-2.08-6.9,2.78-8.24,3.84-17.01,6.55-22.06-1.87,4.5-4.54,11.97-6.66,19.65-1.84,6.67-2.99,7.03-8.83,3.37-1.04-1.08-2.38-1.71-3.63-2.48-1.26-.77-2.16-2.01-3.74-2.88,2.2,1.69,3.91,3.53,6.19,4.59,9.77,6.65,20.19,12.02,31.31,16.02,2.17,.78,4.48,1.28,6.17,3.03Z"/>
    <path class="cls-13" d="M200.29,113.34c1.3-6.18,2.56-12.34,6.75-17.43,8.71-10.59,20.09-14.24,33.04-11.4,13.81,3.04,21.88,12.6,25.11,26.17,2.9,12.2-1.71,22.11-9.95,30.79-.67,.79-1.18,1.79-2.42,1.83-9.06,4.76-18.46,7-28.72,4.44-5.11-1.28-9.2-4.42-13.78-6.66-1.33-.56-2.36-1.5-3.33-2.54-3.58-4.77-6.27-9.93-7.11-15.93,0-3.1-1.76-6.27,.4-9.28Z"/>
    <path class="cls-29" d="M69.31,76.53c-12.2-10.38-20.1-23.26-22.64-39.21-.37-2.33-.12-4.64,.51-6.91,2.2-7.91,5.44-9.31,12.67-5.21,1.61-3.98,1.78-8.36,3.92-12.16,2.86-5.06,6.69-8.68,12.45-9.89,3.9-.82,7.56,.11,9.45,3.77,1.52,2.95,2.56,2.29,4.71,.8,8.76-6.07,18.16-9.78,29.02-6.48,10.3,3.13,13.65,12.02,7.92,21.15-5.3,8.44-13.9,11.42-22.99,13.42-5.86,1.29-11.83,1.84-17.83,1.68-2.58-.07-3.87,.66-4.53,3.3-1.12,4.54-3.33,8.68-5.96,12.53-1.5,2.2-2.49,4.63-6.57,3.26-2.99-1.01-4.44,2.29-4.11,5.29,.38,3.51,2.72,5.51,5.95,6.57,1.3,2.03,.89,4.41,1.25,6.61,.58,3.65-1.26,2.88-3.22,1.48Z"/>
    <path class="cls-30" d="M200.29,113.34c.21,3.02,.42,6.05,.64,9.07-4.59,3.38-10.13,4.78-15.18,7.21-9.27,4.47-18.42,9.16-27.48,14.01-.78,.6-.8,2.23-1.76,2.18-4.92-.29-4.34,3.04-4.38,6.17-.04,2.56,.6,5.24-.94,7.63-6.05,.31-11.6-1.96-17.33-3.29-2.45-.57-2.15-2.45-2.3-4.27-.25-3.18,1.61-6.45-.38-9.55-.58-.54-1.84-.35-1.94-1.19-.18-1.5,1.15-1.24,2.03-1.22,2.13,.03,4.23,.09,5.89-1.59,11.33-8.16,24.34-12.67,37.4-17,5.02-1.66,10.22-2.75,15.35-4.1,1.16-.46,2.55-.26,3.61-1.44-.86-1.1-2.44-.65-3.53-1.3-.62-.02-1.24-.04-1.85-.07,2.35-3.18,5.47-1.03,8.25-1.19,1.31-.02,2.61-.05,3.92-.07Z"/>
    <path class="cls-1" d="M180.15,248.5c2.38-.21,2.66-1.83,2.9-3.82,2.53-20.7,1.86-41.43,1.01-62.18-.33-8.14-.49-16.3-.63-24.45-.02-1.35-.62-3.04,1.52-4.16,1.95,9.36,1.54,18.65,1.92,27.86,.81,19.79,.07,39.58-.43,59.36-.12,4.99,1.19,6.27,5.74,4.18,1.17-.54,2.58-.57,3.87-.84,1.02-.59,2.19-.81,2.97,.11,.62,.73-.1,1.38-.88,1.72-3.94,1.07-7.62,3.04-11.78,3.34-1.92,.66-3.89,.3-5.84,.27-.58-.34-.7-.8-.37-1.38Z"/>
    <path class="cls-10" d="M92.3,200.03c-13.98-3.54-26.53-10.03-38.2-18.36-.08-1.68,.64-1.93,1.96-1.09,.83,.52,1.69,1,2.48,1.57,2.71,1.92,3.88,1.08,4.58-2.05,1.95-8.77,4.92-17.22,8.94-25.27,.48-.96,1.11-1.85,1.7-2.83,1.98,1.69,.64,2.99,.09,4.22-3.8,8.54-5.25,17.79-8.12,26.62-.54,1.65-.3,2.87,1.44,3.66,5.58,2.54,11.13,5.18,16.72,7.71,1.58,.72,2.96,.55,3.27-1.59-.5-3.43-1.13-6.85,.31-10.22,2.55,.58,1.68,3.02,2.49,4.54,.58,1.97,.72,4.05,1.55,6.48-.4-1.53-.05-2.32,.83-2.9,1.83,3.18,.87,6.35-.04,9.52Z"/>
    <path class="cls-9" d="M252.82,143.3c.36-1.2,1.19-1.78,2.42-1.83,.53,10.09,1.42,20.18,1.52,30.27,.14,15.1-.26,30.21-.47,45.31-.02,1.22,.52,2.75-1.19,3.42-1.33-1.11-.79-2.82-1.34-4.18,.76-24.34-.23-48.67-.93-72.99Z"/>
    <path class="cls-8" d="M151.18,159.61c0-3.27,.02-6.53-.02-9.8-.03-2.38,.55-4.71,3.38-4.15,3.45,.69-.22-3.83,2.63-3.12,6.39,.97,12.83,1.53,19.23,2.43,9.13,1.28,17.25-2.56,25.62-5.1,2.05-.62,3.98-1.73,6.24-1.29,.69,.83,1.37,1.67,2.06,2.5-7.3,3.21-14.97,5.4-22.48,8.01-5.32,1.85-10.53,.21-15.76-.18-4.95-.37-9.88-1.19-14.77-2.1-3.24-.6-4.2,.43-4.59,3.68-.36,3.03,1.65,6.58-1.55,9.13Z"/>
    <path class="cls-7" d="M234.96,209.67c-2,.56-3.21-.02-3.15-2.33,.12-4.01,2.04-6.9,5.51-8.83,3.16-1.76,6.41-2.08,9.4,.07,2.29,1.65,4.51,4.49,.53,6-5.3,2.02-4.98,5.78-4.83,9.96,.09,2.7-.41,5.13-3.92,5.02-1.02-.03-2.02-.63-2.29-1.66-.4-1.51,.85-1.13,1.73-1.46,2.67-1,1.35-3.28,1.19-5.06-.26-3.04-2.43-1.9-4.17-1.71Z"/>
    <path class="cls-17" d="M123.19,75.6c-1.74,5.95-5.66,10.29-11.15,12.6-4.28,1.8-5.01,4.04-3.25,7.86,.42,.91,.64,1.89-.01,3.12-2.72-.49-2.79-3.1-3.09-4.81-.52-2.95-1.86-3.51-4.63-3.52-9.52-.05-16.59-4.29-20.58-13.34,6.23,5.86,12.47,11.53,21.91,10.61,9.43-.91,15.42-6.15,19.03-14.59,.34-.77,.99-1.47,1.71-.85,.9,.77,.73,1.92,.07,2.91Z"/>
    <path class="cls-28" d="M92.34,190.51v6.79c-.48,.09-.96,.17-1.43,.26-.59-3.35-1.18-6.69-1.77-10.04-2.18-10.37-1.08-20.88-1.36-31.33-.08-4.97,.23-9.88,2.26-14.51,2.93-.18,1.87,2.07,2.08,3.5,.09,.63-.77,1.8,.9,1.38-1.31,14.64-2.31,29.28-.67,43.96Z"/>
    <path class="cls-25" d="M196.37,113.41c-2.65,1.11-5.74-.85-8.25,1.19-8.43-.02-16.86,.05-25.28-.11-5.15-.1-10.21,.47-15.28,1.24-3.07-.03-5.9,1.66-9.02,1.23-.54-.31-.75-.77-.62-1.39,3.57-3.47,8.32-1.84,12.45-2.87,15.36-1.79,30.7-1.91,46,.71Z"/>
    <path class="cls-20" d="M150.38,112.7c-4.07,.97-8.14,1.95-12.21,2.92-.52,.93-1.38,1.46-2.36,1.65-10.86,2.1-21.12,6.11-31.44,9.91-1.52-.28-1.85-2-3.11-2.62,12.64-6.04,26.11-9.33,39.76-12.01,1.54-.3,3.47,.1,4.17-1.99,1.74,.69,3,2.54,5.19,2.14Z"/>
    <path class="cls-35" d="M158.16,234.4c-13.34,5.7-27.76,4.9-42.04,7.67,.66-3.49,3.06-3.27,4.75-3.55,9.15-1.48,18.31-2.88,27.5-4.08,3.76-.49,7.24-1.75,10.79-2.9,1.18,1.48,.07,2.16-.99,2.86Z"/>
    <path class="cls-19" d="M123.19,75.6c-.34-.91,.87-3.16-1.78-2.06,1.77-6.52,1.62-13.19,.72-19.75-.87-6.28-2.55-12.45-4.04-19.45,7.11,6.46,9.68,30.37,5.1,41.26Z"/>
    <path class="cls-28" d="M103.21,126.39c11.31-4.7,22.93-8.4,34.95-10.77,0,.31,0,.61,0,.92,.36,.21,.47,.41,.35,.61-.12,.2-.24,.29-.37,.29-14.38,3.95-28.41,8.86-41.95,15.12-.68-.59-2.01-.16-2.24-1.44,2.32-3.07,5.4-4.66,9.26-4.73Z"/>
    <path class="cls-32" d="M198.14,246.27c1.16-2.73-1.3-1.32-2.09-1.83,11.73-4.17,23.74-7.64,34.9-13.3,1.03,.42,2.33,.21,3.06,1.32-11.28,6.36-23.45,10.41-35.87,13.82Z"/>
    <path class="cls-14" d="M137.15,138.49c-1.14,2.78-3.58,2.06-5.76,2.21-2.85,.19,.01,1.2-.21,1.79-10.66-1.2-20.9-4.1-32.15-7.19,3.19-2.35,5.46-.91,7.45-.57,7.37,1.26,14.71,2.76,22,4.42,3.05,.69,5.87,.79,8.67-.65Z"/>
    <path class="cls-32" d="M120.96,210.4c7.43-5.01,12.78-12.4,20.47-16.9,1.18-.69,2.94-2.11,3.98-.55,1.27,1.89-1.11,2.37-2.2,2.97-4.42,2.42-7.89,5.98-11.6,9.26-3.02,2.67-5.98,5.51-10.65,5.22Z"/>
    <path class="cls-28" d="M234.01,232.46c-1.21,0-2.45,.07-3.06-1.32,6.32-3.42,12.59-6.91,18.97-10.23,2.02-1.05,3.16-2.59,3.84-4.62,1.75,.98,1.28,2.66,1.34,4.18-6.47,4.98-13.5,8.98-21.09,11.99Z"/>
    <path class="cls-31" d="M149.75,225.7c8.29-2.65,17.2-3.81,23.16-12.54-.51,8.74-12.81,15.07-23.16,12.54Z"/>
    <path class="cls-6" d="M180.15,248.5c.02,.28,.06,.57,.11,.85-2.36,1.09-4.77,.75-7.17,.18l.04,.02c-3.97-1.53-8.21,.24-12.21-.96-6.37-.36-12.66-1.3-18.83-2.96,1.02-3.19,3.74-1.71,5.34-1.38,2.1,.43,4.26,.58,6.33,1.12,4.22-.57,8.25,.99,12.4,1.18,4.06,1.19,8.29-.19,12.37,.8,.54,.39,1.08,.78,1.62,1.16Z"/>
    <path class="cls-31" d="M167.65,194.6c-4,7.79-10.31,12.71-18.49,15.29-.84,.27-1.68,.29-2.21-.52-.48-.73,.03-1.39,.61-1.62,7.64-2.92,13.98-7.77,20.09-13.15Z"/>
    <path class="cls-27" d="M172.33,206.72c-5.22,7.52-12.69,10.57-20.84,12.49-.79,.19-1.71,.19-2.08-.81-.32-.87,.38-1.23,.97-1.41,7.35-2.23,14.16-5.48,20.09-10.45,.26-.21,.93,.08,1.87,.18Z"/>
    <path class="cls-14" d="M69.31,76.53c1.23-.09,3.78,1.51,2.49-1.85-.79-2.06-.54-4.14-.52-6.24,2.22,.92,1.6,2.98,1.86,4.67,.75,5.03,1.46,10.07,2.18,15.11,.19,1.15,1.12,2.66-.48,3.24-1.22,.45-.95-1.25-1.51-1.87-1.73-4.23-.69-9.32-4.02-13.06Z"/>
    <path class="cls-2" d="M103.65,64.98c6.77-3.05,3-6.6,1.21-10.03-.51-.98-1.81-2.16-.63-3.04,1.55-1.15,2.22,.73,2.9,1.66,.97,1.32,1.79,2.79,2.5,4.28,2.36,4.97,.46,7.63-5.98,7.12Z"/>
    <path class="cls-15" d="M94.06,131.5c.83,.11,1.68,.19,2.13,1.06-2.42,4.36-1.8,9.4-3.19,14-.42,.66-.83,1.33-1.94,3.08v-8.34c-1.4-4.95-.53-7.8,2.99-9.8Z"/>
    <path class="cls-26" d="M153.76,245.35c-3.86,1.38-7.85-2.85-11.67,.27-3.27-.17-6.46-.67-9.29-2.87,7.13-.4,14.09,.66,20.96,2.6Z"/>
    <path class="cls-34" d="M102.37,75.75c-3.11,.32-4.8-.42-6.24-1.59-1.43-1.17-3.21-3.09-1.7-4.56,1.9-1.84,2.57,1.11,3.4,2.13,1.89,2.32,3.7,2.14,6.02,.8,.83-.48,2.19-1.89,3.03-.5,.95,1.57-.79,2.23-1.89,2.77-1.17,.58-2.46,.89-2.62,.95Z"/>
    <path class="cls-22" d="M94.72,43.74c-.06,.67-6.95,5.03-7.56,4.75-.67-.31-1.03-.97-.64-1.57,1.67-2.56,3.82-4.44,7.1-4.45,.76,0,1.13,.5,1.11,1.27Z"/>
    <path class="cls-24" d="M111.22,38.39c2.07,.11,4.07,.44,4.71,2.73,.26,.92-.88,1.7-1.54,1.1-1.84-1.68-5.51,.76-6.19-2.47-.37-1.75,1.88-1.12,3.02-1.36Z"/>
    <path class="cls-3" d="M93.58,53.15c1.5,.27,2.21,1.27,2.34,2.71,.09,1.07-.3,2.14-1.45,2.16-1.58,.03-2.12-1.3-2.35-2.64-.19-1.12,.38-1.87,1.45-2.23Z"/>
    <path class="cls-17" d="M73.33,89.58c.46,.37,1.1,1.14,1.35,1.03,1.05-.47,.31-1.61,.64-2.4,.38,1.23,.84,2.45,1.12,3.71,.28,1.24,1.9,3.02-.37,3.58-2.21,.54-1.63-1.93-2.2-3.08-.41-.83-.37-1.88-.54-2.84Z"/>
    <path class="cls-25" d="M189.97,114.66c2.11-.45,4.21-.41,6.55,.26-1.45,3.2-4.03,2.87-6.63,2.48,1.63-.87,1.57-1.78,.08-2.74Z"/>
    <path class="cls-34" d="M162.83,229.35c1.84-1.26,3.42-2.96,6.01-3.48,.43,3-1.72,3.73-3.69,4.59-.69-.53-1.86-.06-2.31-1.11Z"/>
    <path class="cls-11" d="M112.72,48.15c1.2,.76,1.91,1.78,1.73,3.27-.11,.86-.4,1.84-1.4,1.57-1.47-.39-1.86-1.72-1.8-3.13,.04-.92,.55-1.51,1.47-1.71Z"/>
    <path class="cls-27" d="M162.83,229.35c.87,.16,1.81,.18,2.31,1.11-2.36,1.27-4.21,3.42-6.99,3.94,.33-.95,.66-1.9,.99-2.86,1.23-.73,2.45-1.46,3.68-2.19Z"/>
    <path class="cls-33" d="M173.08,249.53c2.39-.06,4.78-.12,7.17-.18,2.03,.09,4.07,.18,6.1,.26-4.43,1.5-8.85,.87-13.27-.08Z"/>
    <path class="cls-33" d="M178.53,247.33c-4.14-.05-8.35,1.09-12.37-.8,4.14,.04,8.3-.25,12.37,.8Z"/>
    <path class="cls-33" d="M160.92,248.58c4.07,.31,8.28-1.21,12.21,.96-4.11,.18-8.2,.17-12.21-.96Z"/>
    <path class="cls-18" d="M138.15,117.44c0-.3,.01-.6,.01-.9,3.19,.35,6.16-1.75,9.4-.81-3.06,.99-6.11,2.05-9.42,1.71Z"/>
    <path class="cls-4" d="M94.06,131.5c-3,2.66-2.25,6.46-2.99,9.8-.69,4.75-1.38,9.5-2.07,14.26-.73,7.21-.1,14.44-.34,21.66-.06,1.77,.49,3.62-.49,5.31-2.01,3.19-.49,6.75-1.02,10.09-1.69-8.01-1.45-16.18-1.53-24.26-.09-8.46,1.16-16.92,1.43-25.39,.31-9.71,4.56-16.06,14.2-18.41,1.02,.22,3.08-.68,1.96,1.83-3.05,1.7-6.1,3.41-9.15,5.11Z"/>
    <path class="cls-16" d="M56.05,180.57c-.85,.02-1.55,.29-1.96,1.09-3.22-1.59-5.86-3.92-8.15-6.83,4.17,.43,6.99,3.38,10.12,5.74Z"/>
    <path class="cls-12" d="M249.85,105.17c.31,2.1-1.35,2.72-2.35,3.66-6.06,5.68-12.05,11.41-16.22,18.73-1.79,3.14-3.61,3.97-6.31,.69-3.03-3.68-6.41-7.07-9.67-10.61,3.07-.28,6,1,8.4,3.14,2.58,2.3,3.88,1.62,5.85-.92,4.3-5.53,9.62-10.05,15.8-13.47,1.39-.77,2.72-1.85,4.49-1.21Z"/>
    <path class="cls-5" d="M92.03,15.74c4.65-8.77,21.28-12.34,28.09-6.51-9.93-.12-18.9,.93-28.09,6.51Z"/>
    <path class="cls-21" d="M151.14,144.45c-4.75,1.65-9.2,.49-13.65-.53-.66-.15-1.27-.5-1.19-1.29,.08-.77,.71-1.13,1.4-1.08,4.61,.36,9.32,.26,13.44,2.9Z"/>
  </g>
</svg>