<?xml version="1.0" encoding="UTF-8"?>
<svg id="Capa_2" data-name="Capa 2" xmlns="http://www.w3.org/2000/svg" viewBox="0 0 332.42 252.22">
  <defs>
    <style>
      .cls-1 {
        fill: #555;
      }

      .cls-2 {
        fill: #fff;
      }

      .cls-3 {
        fill: #585858;
      }

      .cls-4 {
        fill: #575757;
      }

      .cls-5 {
        fill: #aeaeae;
      }

      .cls-6 {
        fill: #565656;
      }

      .cls-7 {
        fill: #5f5f5f;
      }

      .cls-8 {
        fill: #4d4d4d;
      }

      .cls-9 {
        fill: #4e4e4e;
      }

      .cls-10 {
        fill: #6b6b6b;
      }

      .cls-11 {
        fill: #c3c3c3;
      }

      .cls-12 {
        fill: #242424;
      }

      .cls-13 {
        fill: #767676;
      }

      .cls-14 {
        fill: #747474;
      }

      .cls-15 {
        fill: #737373;
      }

      .cls-16 {
        fill: #464646;
      }

      .cls-17 {
        fill: #2c2c2c;
      }

      .cls-18 {
        fill: #ebebeb;
      }

      .cls-19 {
        fill: #373737;
      }

      .cls-20 {
        fill: #535353;
      }

      .cls-21 {
        fill: #515151;
      }

      .cls-22 {
        fill: #191919;
      }

      .cls-23 {
        fill: #454545;
      }

      .cls-24 {
        fill: #b5b5b5;
      }

      .cls-25 {
        fill: #595959;
      }

      .cls-26 {
        fill: #404040;
      }

      .cls-27 {
        fill: #838383;
      }

      .cls-28 {
        fill: #666;
      }

      .cls-29 {
        fill: #3c3c3c;
      }

      .cls-30 {
        fill: #ededed;
      }
    </style>
  </defs>
  <g id="Capa_1-2" data-name="Capa 1">
    <path class="cls-22" d="M274.96,75.2c4.43-14.17,14.32-24.05,25.56-32.96,2.27-1.8,3.98-.87,5.87,.22,2.19,1.27,3.73,3.18,2.99,5.74-4.32,14.99-7.79,30.33-16.22,43.77-4.24,6.77-10.71,9.72-18.61,9.63-11.19-.13-22.02-2.66-32.98-5.47,2.54,14.23,6.01,27.99,7.72,42.07,.29,2.4,1.23,4.36,3.05,6.05,17.17,15.91,27.81,36.3,38.68,56.54,1.62,3.02-.42,4.72-2.14,6.41-1.96,1.93-4.04,3.22-7.02,1.22-7.35-4.91-14.37-10.25-20.86-16.22-28.24-25.99-48.61-57.06-60.33-93.7-.68-2.14-.96-3.5,1.36-4.94,7.26-4.51,12.08-11.29,16.42-18.46,3.53-5.83,6.97-11.69,11.67-16.74,2.08-2.24,4.03-3.22,6.89-2.09,2.04,.97,1.54,2.45,1.03,4.15-.5,1.65-2.06,2.99-1.72,4.53,1.58-2.11,.51-6.19,4.8-6.89,11.73,5.03,22.48,11.62,32.09,20.03,.61,.5,1.4,.55,2.08,.87-.21-.51-.65-.91-.68-1.5-.05-.79-.13-1.58,.36-2.28Z"/>
    <path class="cls-19" d="M78.14,70.22c-10.73-2.99-21.42-5.12-32.73-2.89-10.06,1.98-20.13,4.35-30.56,4.51,2.85,.34,5.73,1.09,8.55,.91,4.96-.32,8.54,3.35,13.18,3.97,2.24,.3,2.33,2.97,2.91,4.84,7.36,23.84,13.18,48.09,19.63,72.18,4.56,17.02,9.24,34,13.65,51.06,.78,3.03,1.99,3.82,5.07,3.78,22.14-.34,44.28-.46,66.42-.58,1.73,0,3.64-.63,5.96,1.38-4.86,1.7-9.47,1.21-13.8,1.35-19.95,.65-39.92,.77-59.88,1.32-3.83,.11-5.61-.94-6.61-4.78-8.81-33.77-17.79-67.5-26.75-101.24-1.96-7.39-3.95-14.78-6.04-22.13-1.58-5.54-3.69-7.02-9.01-5.47-8.03,2.34-15.86,.46-23.74-.41-1.99-.22-4.07-1-4.36-3.43-.32-2.72,1.79-3.8,3.82-4.58,6.1-2.35,12.57-3.06,18.96-4.12,9.02-1.49,18.03-3.06,27.06-4.47,10.88-1.7,21-.42,29.19,7.89,.42,1.03-.07,1.16-.92,.91Z"/>
    <path class="cls-19" d="M138,249.87c-6.34,3.18-10.5,3.1-13.13-.25-2.52-3.21-1.8-8.42,1.84-13.29,4.5-6.01,9.96-8.03,17.04-6.16,3.26,.86,4.28,3.83,4.03,6.46-.16,1.66-.2,4-1.87,5.43-.9,.14-1.25-.43-1.5-1.15,.33-2.25,1.04-4.51-.02-6.58,1.83,5.85-1.75,9.58-5.7,13.15-.25,.79-.29,1.65-.7,2.4Z"/>
    <path class="cls-19" d="M86.04,250.97c-3.77,1.54-7.63,2.24-10.46-1.41-2.83-3.64-1.75-7.61,.38-11.21,3.41-5.77,8.06-9.74,15.28-9.29,6.31,.39,8.67,3.9,6.88,10.06-.42,.31-.84,.31-1.26,.01-1.15-1.4-.36-3.26-.96-4.45,1.53,7.72-4.83,10.44-9.67,14.15-.54,.67,.22,1.47-.18,2.15Z"/>
    <path class="cls-19" d="M93.87,170.58c1.45,7.97,3.12,15.1,3.92,22.32,.44,3.96,2.13,4.41,5.45,4.33,22.76-.53,45.52-1.46,68.3-1.08,4.06,.07,8.2-.44,12.94,1.09-2.95,1.66-5.37,1.66-7.76,1.69-25.6,.37-51.19,.68-76.79,1.12-2.57,.04-4.25-.46-4.57-3.2-.95-8.24-1.86-16.49-2.76-24.74-.02-.21,.36-.46,1.26-1.52Z"/>
    <path class="cls-19" d="M177.07,226.12c-.14,.09-.28,.18-.42,.27-5.63,3.75-10.52,4.12-13.07,.99-2.73-3.35-1.15-9.41,3.56-13.68,4.64-4.2,11.19-4.99,14.43-1.4,3.6,3.98,.54,7.37-1.52,10.74q-1.31-1.73,.02-5.57c.21-.63-.79-.34-.13-.26,.15,.02,.15,.17,.06,.47-.55,1.94-1.19,4.14-2.78,5.18-2.08,1.36-.23,2.21-.14,3.28Z"/>
    <path class="cls-19" d="M194.15,96.27c-9.07,23.32-17.41,46.9-25.51,70.57-.59,1.72-1.25,3.53-3.69,3.31-5.61-.51-11.3,.44-16.86-.94-.33-.22-.44-.43-.33-.65,.11-.22,.21-.33,.32-.33,4.31,.02,8.67-.33,12.93,.15,4.21,.47,5.68-1.33,6.95-5.03,7.85-22.87,15.19-45.94,25.29-67.99,.87-.26,1.34-.13,.9,.91Z"/>
    <path class="cls-8" d="M222.82,48.38c-9.98-2.71-19.99-4.53-30.46-3.37-18.38,2.04-33.72,9.31-44.78,24.57-1,1.38-1.5,3.4-3.69,3.77,9.96-23.74,47.5-38.44,81.08-25.92-.02,1.89-1.2,1.17-2.15,.95Z"/>
    <path class="cls-1" d="M283.09,227.23c-1.44,3.17-2.91,6.33-4.32,9.52-.62,1.41-1.05,2.88,.32,4.13,1.33,1.21,2.81,.69,4.23,.22,2.53-.84,4.08-2.81,5.41-4.95,2.72-4.39,5.67-8.58,9.02-12.53,6.45-7.61,6.01-11.06-1.69-16.99,6.89-.37,9.74,7.59,6.65,12.51-4.66,7.43-10.11,14.36-15.42,21.36-1.16,1.53-3.05,2.5-5.17,2.75-4.43,.53-6.85-2.06-5.29-6.26,1.5-4.03,3.58-7.84,5.41-11.75,1.82,.02,1.22,1.05,.83,1.99Z"/>
    <path class="cls-19" d="M119.18,169.08c-17.81,.32-35.62-.23-53.45,.22,6.17-1.98,12.62-1.6,18.86-1.81,15.77-.53,31.58-.17,47.37-.12,.79,0,1.58,.41,2.37,.63-4.95,1.75-10.18-.29-15.15,1.09Z"/>
    <path class="cls-23" d="M168.21,103.52c-1.78,8.53-5.11,16.44-10.32,23.4-7.95,10.62-19.59,9.87-27.87-1.6-.45-1.1,.11-1.27,1.02-1.1,.88,.99,1.72,2.01,2.64,2.96,7.11,7.42,15.63,7.19,22.14-.83,4.97-6.13,7.67-13.45,10.13-20.84,.47-1.41,.91-2.82,1.37-4.24,1.87,.13,1.1,1.3,.89,2.25Z"/>
    <path class="cls-19" d="M78.14,70.22c.31-.3,.61-.61,.92-.91,2.11,3.3,2.39,7.17,3.07,10.83,.62,3.38,2.16,4.22,5.37,4.15,8.61-.2,17.24-.07,25.88,.61-13.24,2.36-26.79-.13-40,2.47-.99,.21-2.2,.9-2.18-1.03,12.56-2.68,10.03-.42,7.96-11.77-.27-1.47-.68-2.91-1.02-4.36Z"/>
    <path class="cls-19" d="M117.08,88.38c1.21,3.21-1.56,1.76-2.39,1.77-7.94,.13-15.89-.02-23.83,.12-5.94,.11-11.87,.52-17.8,.8-.38-.32-1.01-.38-1.1-1.02,1.48-1.04,3.19-.73,4.83-.78,11.27-.33,22.54-.62,33.81-.9,1.51-.04,2.99,0,4.3-.91,.92-.15,1.74-.06,2.19,.91Z"/>
    <path class="cls-6" d="M328.91,44.46c-1.69-4.68-3.39-9.35-5.06-14.04-1.12-3.13-2.61-5.87-6.47-5.96-3.62-.08-5.14,2.46-6.51,5.27-.45,.93-.52,2.39-3.46,2.56,2.71-3.8,2.97-8.28,7.99-9.33,4.64-.97,7.74,.93,9.46,5.24,1.85,4.62,3.8,9.21,4.89,14.1-.44,.66,.07,1.68-.84,2.16Z"/>
    <path class="cls-3" d="M117.08,88.38c-.73-.31-1.46-.61-2.19-.91,3.82-3.3,5.98-.25,7.11,2.52,1.37,3.37,2.8,3.4,5.81,2.24,3.14-1.21,5.44-2.4,4.11-6.21-.66-1.89-1.58-3.7-2.47-5.75,2.72,1.54,6.16,8.71,5.24,10.69-.55,1.2-1.93,1.08-2.94,1.56-3.18,1.52-7.25,1.24-9.49,4.66-.29,.31-.59,.3-.9,.02-.06-3.6,1.33-7.91-4.28-8.82Z"/>
    <path class="cls-21" d="M328.91,44.46c.28-.72,.56-1.44,.84-2.16,1.18,3.08,2.45,6.14,2.66,9.49,.15,2.34-.6,4.42-2.84,5.3-2.12,.83-3.39-1.02-4.45-2.4-1.4-1.82-2.56-3.86-3.63-5.9-1.58-3.03-3.34-5.64-7.4-5.31,3.5-2.21,5.99-.69,7.83,2.33,1.63,2.67,2.75,5.65,4.86,8.04,.76,.86,1.44,2.02,2.81,1.27,1.13-.62,1.53-1.82,1.28-3.01-.56-2.57-1.29-5.1-1.96-7.65Z"/>
    <path class="cls-19" d="M198.19,154.2c.03,.86-.05,1.72-.91,2.14-8.67,4.32-17.36,8.61-26.23,12.56,7.72-6.7,17.64-9.49,26.17-14.73,.33-.32,.65-.29,.97,.02Z"/>
    <path class="cls-19" d="M71.21,86.34c.73,.34,1.45,.69,2.18,1.03-3.86,1.27-7.85,1.81-11.9,2.03-.36,.02-.71,.24-1.06,.37,.58,.16,1.17,.32,1.75,.48,.83,.98,2.4-.1,3.15,1.11-2.01,1.18-4.18,.84-6.33,.67-1.91-1.01-4.26,.55-6.08-1.01-.57-.31-1.45-.48-1.65-.95-.61-1.42,.88-1.05,1.38-1.13,3.9-.64,7.81-1.15,11.72-1.69,2.28-.31,4.56-.61,6.84-.92Z"/>
    <path class="cls-19" d="M194.15,96.27c-.3-.3-.6-.61-.9-.91,1.55-4.2-1.68-3.96-4-3.98-6-.05-11.95-.55-17.89-1.31-.63-.25-.83-.67-.57-1.32,.22-.53,.64-.42,1.05-.39,7.13,.68,14.21,2.56,21.44,.95,.49-.67,1-.65,1.53-.04,.23,1.11,.65,1.9,1.96,1.12,1.22,1.18,1.07,2.4,.08,3.63-2.43-1.08-1.36,2.03-2.71,2.26Z"/>
    <path class="cls-19" d="M198.19,154.2c-.32-.01-.64-.02-.97-.02,1.99-7.99,5.56-15.31,9.46-22.51-2.03,7.83-5.01,15.27-8.49,22.53Z"/>
    <path class="cls-25" d="M114.9,43.13c6.55-2.35,13.09-4.72,17.24-10.87,.92-.13,1.55,0,1.04,1.16-3.88,6.47-10.18,9.08-17.09,10.71-.41-.32-1.02-.39-1.19-.99Z"/>
    <path class="cls-2" d="M177.07,226.12c-1.25-2.23-2.97,1.35-4.45-.62,3.61-2.96,7.63-5.87,6.15-12.29,3.1,2.06,2.38,3.96,1.85,6-.32,1.22-2.4,2.28-.58,3.84-.49,1.51-1.54,2.47-2.97,3.08Z"/>
    <path class="cls-19" d="M97.07,239.12c.35,0,.69,0,1.04,0-1.99,6.02-6.22,9.77-12.07,11.86q-2.47-1.53-1.73-2.76c4.37,.27,6.29-3.41,9.11-5.64,1.32-1.05,1.66-3.12,3.66-3.45Z"/>
    <path class="cls-26" d="M129.04,8.45c-.4,.26-.85,.47-1.2,.8-1.57,1.45-2.69,4.37-5.44,2.65-2.06-1.29-2.72-3.61-1.49-6.02,1.48-2.91,3.64-3.5,6.42-1.76-.29,.65-.79,1.14-1.25,1.66-.66,.73-2.11,.79-1.94,2.34,1.79-.38,1.82-2.52,3.31-3.12,1.66,.64,2.37,1.71,1.59,3.46Z"/>
    <path class="cls-9" d="M171.85,88.36c-.16,.57-.32,1.15-.49,1.72-1.05,4.48-2.1,8.96-3.16,13.44-.3-.75-.59-1.5-.89-2.25,1.27-6.22,2.54-12.45,3.96-19.45,1.49,2.76,.59,4.66,.57,6.54Z"/>
    <path class="cls-7" d="M133.18,33.42c-.35-.39-.69-.77-1.04-1.16,2.04-4.62,.87-9.2-.81-14.32,4.71,4.15,5.14,9.3,1.85,15.48Z"/>
    <path class="cls-19" d="M119.18,169.08c4.93-1.98,10.14-.15,15.15-1.08,4.59,.08,9.18,.16,13.76,.24,0,.33,0,.66,0,.98-9.64-.04-19.28-.09-28.92-.13Z"/>
    <path class="cls-9" d="M130.1,3.3c.89-.69,1.85-1.32,2.66-2.1,1.37-1.29,2.91-1.61,4.47-.64,1.72,1.08,2.13,2.78,1.63,4.74-.54,2.14-2.16,2.13-3.86,2.01-.97-.06-1.94-.06-2.9-.09-.3-.41-.28-.81,0-1.22,.87-.68,2.06-.82,2.97-1.59-1.61-.94-1.97,.95-3.03,1.12-1.43-.07-2.26-.65-1.94-2.24Z"/>
    <path class="cls-27" d="M94.07,56.23q-.35,8.44,6.64,16.46c-5.93-2.44-7.97-5.52-7.4-12.04,.15-1.67-2.15-2.82-.63-4.53,.51-.48,.97-.44,1.39,.11Z"/>
    <path class="cls-7" d="M121.36,97.19c.3-.02,.6-.03,.9-.02,1.24,5.55,2.48,11.09,3.72,16.64-.43,.08-.87,.16-1.3,.24-2.05-5.41-3.1-11.04-3.32-16.87Z"/>
    <path class="cls-25" d="M142.23,87.28c.19-4.7,1.78-8.75,5.73-11.77-3.26,5.2-3.9,11.06-4.76,16.86-1.33-1.51,.04-3.53-.97-5.09Z"/>
    <path class="cls-7" d="M141.05,104.29c-1.24-2.21-2.47-4.43-4.07-7.29,3.33,.92,3.56,3.53,4.85,5.18,2.05-2.44-.36-5.64,1.38-8.14,.8,4.01,.92,8.08,.87,12.15-1.83,.66-1.68-1.81-3.03-1.91Z"/>
    <path class="cls-20" d="M114.9,43.13c.4,.33,.79,.66,1.19,.99-4.89,1.44-9.79,2.89-14.68,4.33-1.05,.37-1.36-.1-1.22-1.08,4.64-2.34,9.54-3.76,14.72-4.25Z"/>
    <path class="cls-3" d="M194.82,89.27c-.51,.01-1.02,.03-1.53,.04-.39-4.91-1.05-9.84,1.16-14.57,.4,4.85-.59,9.72,.37,14.53Z"/>
    <path class="cls-29" d="M141.05,104.29c2.93-2.4,1.58,1.98,3.03,1.91,.22,2.77,.44,5.54,.66,8.3-2.02-3.22-1.91-7.03-3.7-10.22Z"/>
    <path class="cls-19" d="M145.14,241.2c.26,.28,.52,.56,.78,.85-1.6,3.66-4.24,6.26-7.91,7.82-.29-.61-.57-1.22-.86-1.83,2.98-1.91,4.73-5.26,8-6.84Z"/>
    <path class="cls-12" d="M132.23,6.07c-.05,.39-.09,.78-.14,1.16-1.15,.07-.98,3.47-3.06,1.22-.49-1.15-.56-2.57-1.95-3.17-.45,.3-.77,.19-.94-.32,.39-.28,.78-.56,1.17-.84,.86-.5,1.55-1.57,2.78-.81,.63,.67,1.27,1.33,1.9,2,.24,.11,.36,.27,.35,.46-.02,.21-.05,.31-.12,.31Z"/>
    <path class="cls-13" d="M100.18,47.38c.41,.36,.81,.72,1.22,1.08-3.13,1.94-5.93,4.2-7.33,7.77-.46-.04-.93-.08-1.39-.11,.92-4.27,3.5-7.11,7.5-8.73Z"/>
    <path class="cls-5" d="M241.1,58.07c-2.94,1.79-2.55,6.06-5.83,7.74-.61-3.44,4.4-5.83,1.72-9.54,1.64-.02,2.84,.95,4.1,1.8Z"/>
    <path class="cls-10" d="M222.82,48.38c.72-.32,1.44-.63,2.15-.95,3.5,.83,6.89,1.94,9.47,4.98l-11.63-4.03Z"/>
    <path class="cls-15" d="M283.09,227.23c-.28-.66-.55-1.33-.83-1.99l2.33-8.75c.43,.1,.86,.19,1.29,.29,.52,3.74-1.56,7.02-2.79,10.45Z"/>
    <path class="cls-17" d="M143.21,94.05c-1.08,2.61,.99,5.75-1.38,8.14,.13-4.97,.27-9.94,.4-14.91,1.36,1.5,.26,3.47,.97,5.09,0,.56,0,1.12,0,1.68Z"/>
    <path class="cls-4" d="M198.93,79.98c.65-2.45,1.73-4.68,3.22-6.73,.93-.13,1.53,.03,1.06,1.17-1.11,2.57-2.22,5.13-3.34,7.7-1.89-.02-1.15-1.2-.94-2.14Z"/>
    <path class="cls-28" d="M131.04,124.22c-.34,.37-.68,.74-1.02,1.1-2.08-2.17-3.02-4.86-3.89-7.59,.36-.22,.71-.44,1.07-.67,1.28,2.38,2.57,4.77,3.85,7.15Z"/>
    <path class="cls-19" d="M52.92,91.02c1.97,.68,4.26-.55,6.08,1.01-4.36,0-8.73,0-14,0,3.14-1.27,5.58-.74,7.92-1.01Z"/>
    <path class="cls-14" d="M198.93,79.98c.31,.71,.63,1.43,.94,2.14-.54,2.43-1.09,4.87-1.63,7.3-1.2-.76-.25-2.2-.97-3.11,.17-2.21,.48-4.39,1.67-6.33Z"/>
    <path class="cls-19" d="M65.33,91.36c-1.07-.31-2.39,.06-3.15-1.11,3.26-.06,6.53-.13,9.79-.19,.37,.34,.73,.68,1.1,1.02-2.58,.1-5.16,.19-7.74,.29Z"/>
    <path class="cls-24" d="M274.96,75.2c-.79,3,2.82,4.15,3.24,7.32-2.36-1.3-3.74-2.79-5.01-4.41,.59-.97,1.18-1.94,1.76-2.91Z"/>
    <path class="cls-16" d="M197.26,86.31c.32,1.04,.65,2.07,.97,3.11-.04,1.92-.05,3.84-.14,5.76-.04,.8-.69,.5-.88,.21-.25-.37-.25-.92-.36-1.39-.03-1.21-.05-2.43-.08-3.63,.16-1.35,.32-2.71,.48-4.07Z"/>
    <path class="cls-14" d="M203.2,74.43c-.35-.39-.7-.78-1.06-1.17,.62-1.92,1.72-3.49,3.77-4.89-.08,2.65-1.46,4.33-2.72,6.06Z"/>
    <path class="cls-11" d="M224.83,81.09c-1.21,3.73-3.77,6.18-7.07,8.01,1.95-3.03,3.51-6.38,7.07-8.01Z"/>
    <path class="cls-2" d="M145.14,241.2c-2.52,2.45-4.04,6.07-8,6.84-.01-1.78,1.43-2.43,2.54-3.39,4.91-4.23,5.52-7.9,2.23-13.06,3.91,2.32,4.5,4.08,3.23,9.61Z"/>
    <path class="cls-2" d="M97.07,239.12c-2.2,3.05-4.36,6.18-7.66,8.13-1.5,.89-2.99,2.99-5.11,.95,3.5-1.28,6.19-3.67,8.67-6.33,2.83-3.04,3.29-6.18-.69-9.93,4.94,1.08,5.08,4,4.79,7.17Z"/>
    <path class="cls-30" d="M126.15,4.95c.31,.11,.62,.22,.94,.32,.1,.48,.4,1.02,.27,1.42-.65,1.89-1.66,3.7-3.81,3.92-.75,.08-1.3-1.34-1.24-2.4,.14-2.42,1.45-3.5,3.85-3.26Z"/>
    <path class="cls-18" d="M132.23,6.07c-.04-.27-.12-.52-.23-.77,.5-.83,.86-1.79,1.53-2.44,.81-.8,1.85-1.46,3.06-.59,.77,.56,.83,1.37,.64,2.2-.31,1.33-1.23,1.86-2.55,1.79-.82-.05-1.64-.12-2.46-.19Z"/>
    <path class="cls-19" d="M66.24,103.98c3.46,3.51,5.69,7.84,7.69,12.26,2.46,4.15,5.79,7.75,8.13,11.99,1.59,2.8,3.06,5.67,4.17,8.75l-.17,.1c-3.29-3.64-5.94-7.64-8.22-11.94-1.61-2.78-2.66-5.9-4.47-8.57-1.9-2.6-4.03-5.05-5.39-8.02-.73-1.44-1.42-2.9-1.92-4.47l.17-.1h0Z"/>
    <path class="cls-19" d="M68.6,125.44c3.94-3.37,8.63-5.47,13.4-7.32,4.53-2.33,8.55-5.57,13.15-7.78,3.04-1.5,6.15-2.88,9.45-3.9,0,0,.09,.18,.09,.18-4.06,3.19-8.45,5.73-13.11,7.87-3.03,1.52-6.36,2.47-9.29,4.2-2.86,1.82-5.6,3.89-8.79,5.15-1.56,.68-3.14,1.32-4.81,1.78,0,0-.09-.18-.09-.18h0Z"/>
    <path class="cls-19" d="M68.6,139.44c4.82-3.87,10.37-6.47,16.02-8.82,5.4-2.84,10.3-6.56,15.77-9.28,3.63-1.84,7.32-3.55,11.21-4.9l.09,.18c-4.93,3.69-10.2,6.73-15.73,9.37-3.61,1.87-7.53,3.14-11.04,5.21-3.44,2.16-6.76,4.55-10.54,6.15-1.85,.85-3.72,1.66-5.69,2.28,0,0-.09-.18-.09-.18h0Z"/>
    <path class="cls-19" d="M82.73,110.47c4.05,3.83,6.91,8.55,9.56,13.37,3.08,4.53,7.01,8.46,9.98,13.08,2.01,3.05,3.9,6.18,5.46,9.55,0,0-.16,.11-.16,.11-3.88-3.96-7.16-8.34-10.07-13.02-2.03-3.04-3.52-6.44-5.74-9.35-2.3-2.84-4.83-5.51-6.62-8.74-.94-1.57-1.84-3.17-2.57-4.88l.16-.11h0Z"/>
    <path class="cls-19" d="M93.6,143.44c2.17-2.47,5.12-3.72,8.14-4.7,2.78-1.46,5.03-3.81,7.89-5.15,1.88-.92,3.82-1.72,5.96-2.15l.1,.18c-2.3,2.31-4.92,3.97-7.85,5.24-1.86,.94-4.03,1.31-5.8,2.45-2.46,2.01-5.1,3.82-8.36,4.3,0,0-.1-.18-.1-.18h0Z"/>
    <path class="cls-19" d="M103.73,112.47c1.22,.45,2.17,1.21,2.82,2.29,.27,.54,.4,1.2,.73,1.7,1.07,1.41,2.94,2.11,3.95,3.65,.68,.97,1.25,2.04,1.5,3.36l-.15,.13c-1.25-.51-2.18-1.28-3-2.14-1.31-1.3-1.63-3.26-2.8-4.6-.98-.77-2.06-1.21-2.6-2.46-.27-.54-.52-1.1-.6-1.8l.15-.13h0Z"/>
    <path class="cls-19" d="M129.73,137.47c3.12,2.14,5.14,5.26,6.93,8.49,2.21,2.91,5.22,5.16,7.34,8.17,1.43,1.97,2.74,4.03,3.74,6.35,0,0-.16,.12-.16,.12-2.97-2.3-5.36-5.03-7.42-8.1-1.44-1.96-2.38-4.31-4.01-6.13-1.71-1.74-3.64-3.3-4.86-5.47-.65-1.04-1.27-2.1-1.72-3.29l.16-.12h0Z"/>
    <path class="cls-19" d="M151.73,146.47c1.22,.45,2.17,1.21,2.82,2.29,.27,.54,.4,1.2,.73,1.7,1.07,1.41,2.94,2.11,3.95,3.65,.68,.97,1.25,2.04,1.5,3.36l-.15,.13c-1.25-.51-2.18-1.28-3-2.14-1.31-1.3-1.63-3.26-2.8-4.6-.98-.77-2.06-1.21-2.6-2.46-.27-.54-.52-1.1-.6-1.8l.15-.13h0Z"/>
    <path class="cls-19" d="M129.61,152.44c4.21-3.38,9.14-5.47,14.15-7.33,4.77-2.33,9.07-5.58,13.92-7.79,3.21-1.5,6.48-2.88,9.93-3.89l.09,.18c-4.33,3.2-8.98,5.74-13.87,7.88-3.19,1.52-6.68,2.46-9.78,4.19-3.04,1.82-5.95,3.9-9.3,5.15-1.64,.68-3.3,1.32-5.05,1.77l-.09-.18h0Z"/>
    <path class="cls-19" d="M138.62,156.44c2.36-1.94,5.26-2.53,8.18-2.84,2.77-.83,5.19-2.63,8.02-3.34,1.86-.49,3.76-.86,5.79-.83l.06,.19c-2.46,1.75-5.11,2.81-7.99,3.43-1.85,.52-3.9,.42-5.69,1.16-1.74,.84-3.38,1.95-5.36,2.18-.96,.17-1.92,.3-2.96,.23l-.06-.19h0Z"/>
    <path class="cls-19" d="M171.57,139.59c-1.09-.51-1.91-1.29-2.37-2.36-.18-.53-.2-1.16-.44-1.65-.78-1.37-2.46-2.13-3.25-3.72-.51-.96-.89-2.01-.93-3.27,0,0,.17-.11,.17-.11,1.12,.57,1.91,1.36,2.57,2.23,1.1,1.4,1.08,3.23,2,4.53,.84,.82,1.78,1.25,2.13,2.51,.18,.53,.33,1.08,.3,1.74l-.17,.11h0Z"/>
    <path class="cls-3" d="M117.82,84.09c2.34-1.22,5.65-.26,7,2-2.36-1.14-4.38-1.75-7-2h0Z"/>
    <path class="cls-3" d="M122.55,81.62c2.52-.8,5.61,.7,6.56,3.16-2.13-1.53-4.02-2.47-6.56-3.16h0Z"/>
  </g>
</svg>