<?xml version="1.0" encoding="UTF-8"?>
<svg id="Capa_2" data-name="Capa 2" xmlns="http://www.w3.org/2000/svg" viewBox="0 0 280.29 331.89">
  <defs>
    <style>
      .cls-1 {
        fill: #6a6a6a;
      }

      .cls-2 {
        fill: #797979;
      }

      .cls-3 {
        fill: #555;
      }

      .cls-4 {
        fill: #3d3d3d;
      }

      .cls-5 {
        fill: #575757;
      }

      .cls-6 {
        fill: #3f3f3f;
      }

      .cls-7 {
        fill: #363636;
      }

      .cls-8 {
        fill: #4b4b4b;
      }

      .cls-9 {
        fill: #5f5f5f;
      }

      .cls-10 {
        fill: #3e3e3e;
      }

      .cls-11 {
        fill: #4d4d4d;
      }

      .cls-12 {
        fill: #393939;
      }

      .cls-13 {
        fill: #1c1c1c;
      }

      .cls-14 {
        fill: #646464;
      }

      .cls-15 {
        fill: #505050;
      }

      .cls-16 {
        fill: #767676;
      }

      .cls-17 {
        fill: #7d7d7d;
      }

      .cls-18 {
        fill: #a1a1a1;
      }

      .cls-19 {
        fill: #424242;
      }

      .cls-20 {
        fill: #414141;
      }

      .cls-21 {
        fill: #3a3a3a;
      }

      .cls-22 {
        fill: #464646;
      }

      .cls-23 {
        fill: #b6b6b6;
      }

      .cls-24 {
        fill: #5d5d5d;
      }

      .cls-25 {
        fill: #616161;
      }

      .cls-26 {
        fill: #afafaf;
      }

      .cls-27 {
        fill: #bebebe;
      }

      .cls-28 {
        fill: #1d1d1d;
      }

      .cls-29 {
        fill: #d5d5d5;
      }

      .cls-30 {
        fill: #373737;
      }

      .cls-31 {
        fill: #dcdcdc;
      }

      .cls-32 {
        fill: #636363;
      }

      .cls-33 {
        fill: #474747;
      }

      .cls-34 {
        fill: #292929;
      }

      .cls-35 {
        fill: #434343;
      }

      .cls-36 {
        fill: #191919;
      }

      .cls-37 {
        fill: #7b7b7b;
      }

      .cls-38 {
        fill: #454545;
      }

      .cls-39 {
        fill: #484848;
      }

      .cls-40 {
        fill: #6e6e6e;
      }

      .cls-41 {
        fill: #404040;
      }

      .cls-42 {
        fill: #5e5e5e;
      }
    </style>
  </defs>
  <g id="Capa_1-2" data-name="Capa 1">
    <g>
      <path class="cls-11" d="M23.1,71.53c.17,3.67-1.48,7.05-1.48,10.77,0,7.73,4.38,10.71,11.89,7.72,.65,.67,4.71,5.9,.95,6.96-3.12,.88-7.56,1.47-10.21-1.81-5.01-6.2-5.16-17.26-1.15-23.63Z"/>
      <path class="cls-30" d="M23.1,71.53c4.84-10.35,18.29-15.27,29.28-10.71,10.98,4.56,16.08,15.91,12.15,27.01-3.96,11.2-3.79,11.89,4.9,19.77,4.98,4.51-.62,6.35-2.34,9.17-6.44,.83-16.79-5.92-18.74-12.31-.47-1.55-.79-3.14-1.48-4.61-.43-3.83,1.59-6.82,3.38-9.89,2.25-2.76,2.07-6.22,2.35-9.41,.33-3.69-4.35-7.63-8.94-7.73-2.25-.05-4.69-.14-6.6,1.57-4.97,4.35-3.94,10.06-3.56,15.63-1.25,3-6.1,2.79-7.34,2.81s-2.25-.53-4.95-6.32c-2.15-4.61-.19-10.17,1.88-14.98Z"/>
      <path class="cls-11" d="M46.87,99.85c3.13,7.27,8.33,12.38,15.57,15.65,1.57,.71,3.03,1.12,4.66,1.28-3.99,4.4-7.92,3.6-11.86-.1-3.34-3.14-14.7-10.17-8.37-16.82Z"/>
      <path class="cls-30" d="M81.77,126.58c-.35,.32-.7,.63-1.05,.95-2.88,1.09-5.79,1.74-8.18-.88-2.11-2.32-2.34-4.96-.55-7.65h0c2.83-2.74,5.85-1.98,8.91-.46,.34,.35,.68,.71,1.01,1.06,1.48,2.36,1.44,4.68-.14,6.98Z"/>
      <path class="cls-11" d="M37.07,74.38c6.36-6.42,15.47-1.33,16.88,4.96,.75,3.33-.75,7.66-3.69,10.61,2.37-9.56-3.85-16.91-13.19-15.57Z"/>
      <path class="cls-11" d="M72,119c-.16,7.6,.3,8.05,8.73,8.52-3.22,3.44-6.78,3.77-10.36,.76-3.03-2.55-2.31-6.14,1.63-9.28Z"/>
    </g>
    <g>
      <path class="cls-30" d="M198.51,52.76c.75-3.18,3.27-3.18,5.47-2.62,2.23,.57,3.5,2.46,3.29,4.94-.27,3.16-1.55,5.61-4.61,7.11-1.83,.89-4.24,1.19-4.93,3.76-.34,1.25-1.29,2.08-2.63,1.35-1.16-.64-1.19-1.86-.99-3.09,.49-2.97,3.17-3.61,5.2-4.91,1.7-1.09,4.52-1.15,4.05-4.19-.44-2.88-3.48-.92-4.85-2.35Z"/>
      <path class="cls-30" d="M195.21,69.43c1.12-.1,1.81,.54,2.13,1.56,.34,1.07-.02,2.17-1.09,2.37-1.11,.21-2.41-.17-2.59-1.63-.12-1.04,.41-1.89,1.54-2.3Z"/>
    </g>
    <path class="cls-11" d="M266.91,62.88c-3.66,.34-7.12-1.16-10.82-.98-7.72,.37-10.49,4.87-7.16,12.23-.64,.68-5.67,4.98-6.91,1.27-1.02-3.07-1.82-7.48,1.33-10.28,5.96-5.3,17-5.96,23.55-2.24Z"/>
    <path class="cls-36" d="M174.85,116.11c-8.77,4.84-17.83,4.34-26.7,.76-3.34-1.35-5.01-1.02-6.79,1.94-.8,1.34-2.27,2.74-3.7,3.15-5.02,1.42-4.53,4.9-3.66,8.61,.6,2.57,1.35,5.12,2.03,7.67,.37,1.38,1.5,3.04-.18,4.02-1.46,.86-3.29,.41-4.72-.55-2.63-1.77-3.35-4.76-4.48-7.48-.29-1.18-.97-2.58-1.93-2.72-4.5-.67-5.25-5.2-8.13-7.48-5.32-7.56-4.63-15.59,2.01-21.51,1.37-1.22,1.71-2.57,2.04-4.28,1.17-6.22,5.5-10.32,11.97-10.66,6.11-.32,12.26,.1,18.39,.32,5.58,.2,10.88-.8,15.94-3.14,5.74-2.66,11.32-3.87,16.4,1.45,4.35,4.56,5.62,12.78,2.75,19.09-1.39,3.06-3.31,5.73-6.05,7.76-1.17,1.97-3.76,1.51-5.2,3.02Z"/>
    <path class="cls-30" d="M266.91,62.88c10.57,4.35,16.1,17.56,12.05,28.75-4.05,11.18-15.14,16.81-26.42,13.39-11.37-3.44-12.05-3.23-19.52,5.81-4.28,5.18-6.37-.33-9.27-1.91-1.13-6.4,5.13-17.05,11.43-19.29,1.52-.54,3.1-.93,4.54-1.7,3.81-.6,6.89,1.27,10.04,2.92,2.86,2.12,6.31,1.77,9.51,1.91,3.7,.16,7.42-4.7,7.31-9.28-.05-2.25-.08-4.69-1.87-6.52-4.57-4.76-10.23-3.47-15.78-2.83-3.06-1.11-3.07-5.96-3.15-7.21s.42-2.27,6.08-5.23c4.5-2.36,10.15-.66,15.05,1.18Z"/>
    <path class="cls-21" d="M117.89,191.05c-3.01,1.71-6.02,3.42-9.03,5.13-1.2,2.7-3.9,3.45-6.17,4.76-13.58,7.81-25.19,17.51-30,33.13-4.62,15.04-3.98,29.92,3.42,44.01,6.14,11.69,15.74,18.08,29.39,17.24,1.04,.52,1.68,1.26,1.31,2.51-1.02,.81-1.95,1.88-3.48,1.21-2.5,.03-3.43,1.34-3.01,3.72,.3,1.74,.79,3.43,1.37,5.1,.93,1.93-.43,4.27,1.12,6.09,.37,1.83,1.73,3.88-1.09,5.02h0c-1.33-2.91-1.29-6.27-2.92-9.1-.01-.48-.02-.95-.03-1.43-.72-1.93-.37-3.94-.42-5.92-.04-1.52,.1-3.07-1.89-3.51-11.76-1.59-19.79-8.58-24.52-18.8-11.26-24.28-9.46-47.49,8.55-68.01,9.19-10.47,21.38-17.11,34.26-22.31,1.34-.37,2.88-1.3,3.15,1.17Z"/>
    <path class="cls-6" d="M241.62,267.66c1.48-2.71,3.12-5.35,4.42-8.14,4.18-8.97,3.18-17.52-3.41-24.83-15.45-17.13-31.9-33.14-52.59-44.07-1.17-.62-2.74,.02-3.51-1.39,.52-2.98,2.33-1.84,3.97-1.24,7.18,3.87,14.48,7.45,21.02,12.49,12.02,9.27,22.61,20.01,33.06,30.91,7.2,7.51,10.24,20.2,3.84,29.19-1.74,2.44-3.13,5.55-4.78,8.3-.41,.75-1.03,1.39-1.86,.88-.79-.48-.6-1.35-.17-2.1Z"/>
    <path class="cls-39" d="M200.71,287.87c-1.18,2.55,.07,5.65-1.83,8.04-1.48,2.19-.71,4.81-1.11,7.18-.43,2.52,1.69,1.31,2.93,.58,3.28-1.96,6.56-3.92,9.84-5.88,1.29-.24,2.92-1.4,3.23,1.14-4.42,3.62-9.44,6.36-14.52,8.8-3.05,1.47-3.95,3.75-4.28,6.38-.66,5.18-2.67,9.86-4.57,14.61-.41,1.02-.46,2.66-2.09,2.16-1.95-.6-.92-2.19-.6-3.34,3.1-11,6.56-21.91,8.22-33.27,.26-1.8,.62-3.59,.94-5.38,2.58-12.25,.95-24.66,1.41-37,1.21-2.9-.73-6.49,1.96-9.07,.54-.33,1.08-.33,1.62-.01,3.07,2.32,6.13,4.64,9.2,6.96-.58,1.08-1.55,1.58-2.71,1.78-1.7,.23-2.97-1.19-4.51-1.48-1.13,1.74-.7,3.43-.65,5.01,.32,10.06-1.3,20.01-1.5,30.04-.02,1.01-.34,1.94-.98,2.74Z"/>
    <path class="cls-7" d="M106.81,297.83c-.33-.7-.67-1.4-1-2.1,1.05-2.23,3.52-2.32,5.31-3.39,9.61-5.74,16.1-14.2,20.72-24.1,4.48-9.6,8.15-19.54,10.18-30.01,1.26-4.59,1.35-9.37,2.33-14.01,.39-1.87,.45-4.03,2.98-4.52,2.04,2.86,1,6.12,.75,9.07-.23,2.73-.56,5.56-1.23,8.29-3.39,20.46-10.27,39.31-25.75,53.91-3.9,3.68-8.36,7.02-14.29,6.85Z"/>
    <path class="cls-19" d="M164.73,305.86c1.03-19.97,1.17-39.92-1.07-59.82-.51-.93-.36-1.93-.3-2.92,.49-1.13,.28-2.54,1.41-3.41,2.79,.42,.64,3.1,1.93,4.2,2.95,25.6,3.45,51.2,0,76.8-2.65,1.15-3.43-.58-3.18-2.53,.53-4.1-.26-8.33,1.21-12.32Z"/>
    <path class="cls-7" d="M116.6,124.04c3.21,3.54,8.09,5.43,10.06,10.2-1.92-.3-2.42-3.92-4.78-2.53-2.37,1.4-3.37,3.91-3.31,6.83,.1,4.84,2.46,7.75,7.48,9.17,1.63,.46,4.44-.17,3.61,3.18-2.2,1.79-1.47,4.11-1.01,6.29,.37,1.76,.24,2.61-1.78,1.73-.23-4.14-1.44-7.14-5.79-9.23-6.47-3.11-8.69-11.7-4.61-17.36,2.31-3.21,2.76-5.46,.13-8.28Z"/>
    <path class="cls-25" d="M129.96,161.57c1.14,5.52,2.33,11.04,3.41,16.57,.62,3.17-2.08,6.67,1.4,9.55-2.14,.67-3.1-.63-4.3-1.38-.93-.58-2.13-1.91-3.03-.92-1.02,1.12-.79,2.89,.3,4.13,.97,1.12,2.26,1.98,3.19,3.13,.57,.7,2.51,1.04,1.09,2.61-1.13,1.25-2.08,.3-3.06-.29-1.73-1.05-3.33-2.3-4.04-4.25-.58-1.6-1.65-1.92-3.11-1.76-.25-.37-.25-.74,0-1.1,2.71-2.1,2.27-7.8,7.72-6.77,.09-.96,.28-1.91,.27-2.87-.03-2.63-1.67-5.04-1.1-7.76,.05-3.01-.78-6.15,1.26-8.88Z"/>
    <path class="cls-10" d="M146.86,237.07c-.83-4.3,1.31-8.38,.92-12.64-.14-1.56,.54-3.33-1.1-4.53-5.18-3.07-11.08-5.11-14.91-10.11-1.92-2.51-3.05,.57-4.6,.41-.74-.71-1.64-1.13-2.63-1.38,.32-.76,.56-1.57,.97-2.27q4.26-7.38,9.12-.81c2.81,3.8,6.61,6.44,10.72,8.57,3.07,1.59,5.02,3.23,3.78,7.23-.71,2.27-.26,4.9-.33,7.37-.72,2.71-.52,5.63-1.94,8.17Z"/>
    <path class="cls-15" d="M213.76,298.93c-.75-1.31-2.08-.95-3.23-1.14,12.32-8.02,22.34-18.42,31.09-30.12,.07,1.42,.64,2.01,2.03,1.22-4.15,8.25-11.03,14.25-17.48,20.49-3.7,3.59-7.71,7.12-12.42,9.55Z"/>
    <path class="cls-35" d="M208.75,262.88c-2.04,1.57-2.87,4.04-4.62,5.98-1.3-5.26,1.69-9.12,4.47-12.86,1.41-1.9,1.9-3.23,.06-4.9,.48-1.02,1.44-1.19,2.41-1.33,4.76,3.25,10.79,3.64,16.43,6.88-3.09,1.56-5.54,1.25-7.82,.67-7.35-1.87-7.33-1.95-10.92,5.56Z"/>
    <path class="cls-30" d="M150.37,60.84c3.92-.1,5.25,2.28,5.43,5.64,.19,3.6-1.97,5.09-5.21,5.1-3.48,0-7.05-3.34-6.95-6.21,.16-4.66,3.77-4.15,6.73-4.53Z"/>
    <path class="cls-16" d="M164.04,242.69c-.12,1.12-.25,2.23-.37,3.35-2.04-11.37-2.46-23-5.72-34.17,.52-1.27-.4-3.04,1.57-4.01,2.31,4.18,1.74,9.24,4.13,13.32-.22,5.97,2.07,11.55,2.73,17.38,.2,1.77,.22,3.56,.32,5.35-1.47-.99-.6-3.01-1.81-4.13-1.26-1.61-.2-3.47-.76-5.23-.21-.05-.34-.05-.3,.08,.8,2.66,.45,5.36,.2,8.05Z"/>
    <path class="cls-11" d="M239.72,87.94c-7.12,3.46-11.98,8.9-14.91,16.27-.64,1.6-.98,3.08-1.06,4.71-4.58-3.78-3.97-7.75-.45-11.85,2.99-3.48,9.48-15.15,16.42-9.14Z"/>
    <path class="cls-30" d="M64.09,173.65c-3.06-1.14-2.74-3.65-1.91-5.76,.84-2.15,2.88-3.16,5.31-2.64,3.1,.67,5.37,2.24,6.47,5.47,.66,1.93,.65,4.35,3.11,5.36,1.19,.49,1.9,1.55,1.01,2.78-.78,1.07-2,.94-3.19,.59-2.88-.86-3.18-3.6-4.21-5.78-.87-1.83-.57-4.63-3.64-4.55-2.91,.08-1.35,3.34-2.94,4.52Z"/>
    <path class="cls-30" d="M222.43,169.9c-2.5-.11-5.24-2.64-8.7-2.3-.38,.04-1.27-.98-1.18-1.2,.29-.71,.81-1.54,1.46-1.86,2.14-1.06,4.05-.17,6.07,.79,1.75,.83,3.99,1.38,5.23-.94,1.05-1.96-.32-3.01-1.96-3.79-.77-.37-1.48-.97-1.16-1.92,.4-1.19,1.58-1.09,2.5-.99,3.09,.34,4.7,2.33,4.97,5.24,.31,3.27-3.15,6.84-7.24,6.97Z"/>
    <path class="cls-37" d="M201.86,242.82c-.38,.04-.76,.07-1.14,.11-2.86-1-.92-3.23-1.48-5.92-.05,5.23,.24,9.43-.19,13.61-.53,12.02,.66,24.1-1.32,36.07-.13,.76-.58,1.47-.88,2.21,1.3-13.66,1.61-27.35,1.04-41.05-.23-5.6-.91-11.18-1.38-16.77-.44-1.45-.2-2.95-.25-4.42-.03-.85,.12-1.85,1.16-1.71,.9,.13,.78,1.31,1.13,2.02,1.53,5.19,1.35,10.74,3.3,15.85Z"/>
    <path class="cls-30" d="M214.65,124.05c-.33-.34-.66-.67-.99-1.01-1.22-2.82-2.01-5.7,.5-8.21,2.22-2.22,4.84-2.57,7.61-.9h0c2.87,2.7,2.26,5.75,.88,8.88-.34,.35-.67,.71-1.01,1.06-2.29,1.59-4.61,1.65-6.98,.18Z"/>
    <path class="cls-36" d="M179.87,115.9c.34,14.41,.73,28.82,.98,43.24,.03,1.94-.62,3.9-.96,5.85-1.29,.2-1.68-.67-1.96-1.65,.72-14.34,.14-28.69,.42-43.03,.03-1.47-1.39-3.8,1.52-4.4Z"/>
    <path class="cls-11" d="M264.71,76.97c6.71,6.05,2.05,15.39-4.18,17.09-3.29,.9-7.68-.39-10.77-3.2,9.66,1.92,16.71-4.63,14.95-13.89Z"/>
    <path class="cls-11" d="M152.79,11.93c3.11-3.3,3.92-1.9,7.36,.13,3.64,2.15,6.7,5.29,5.5,10.08-.84,3.34,1.09,3.82-2.86,3.79,1.46-1.34-1.92-15.83-10-14Z"/>
    <path class="cls-11" d="M147.79,32.93c-.67,7.22-2.85,16.22,0,23.08-4.12,.35-5.66-1.48-6.26-5.67-.86-5.98,.61-13.33,6.26-17.41Z"/>
    <path class="cls-10" d="M178.69,163.94c.4,.35,.81,.7,1.21,1.04-.01,.31-.03,.62-.04,.94-1.58,2.14-2.67,4.7-5.1,6.14-.25,.31-.51,.61-.76,.92-2.99,.73-6.24,1.19-5.27,5.67,.16,.72-.02,1.9-1.04,1.88-.64-.01-1.81-.82-1.82-1.28-.1-6.45-5.83-4.48-9.08-6.18-.98-.4-1.49-1.07-1.27-2.17,.75-1.03,1.81-1.39,3.03-1.41,.98,.1,1.59,.83,2.31,1.38l-.08,.03c3.31,.85,6.63,1.65,9.97,.13,2.81-.75,4.03-3.38,6.02-5.1,.88-.43,.04-2.51,1.91-1.99Z"/>
    <path class="cls-41" d="M158.68,197.69q-4.96,4.31-9.17,13.65c-1.97-2.66-1.97-4.36-.34-7.71,1.85-3.81,5.44-6.19,7.69-9.65,1.21-1.41,1.31-3.3,1.93-5.04,3.12,3.1,3.09,4.45-.02,7.97-.18,.25-.21,.52-.08,.8Z"/>
    <path class="cls-11" d="M137.65,10.84c.22,1.76,1.87,2.76,2.43,4.21,1.8,4.62,2.94,5.96,5.71,2.88-1.18,2.49-1.2,3.14-2.48,5.58-.84,1.62-1.93,1.23-3.21,.25-4.43-3.41-5.09-6.66-2.45-12.92Z"/>
    <path class="cls-22" d="M178.69,163.94c-.64,.66-1.27,1.33-1.91,1.99,2.06-15.53,.56-31.13,1.08-46.69,.08-2.32-.59-3.45-3.01-3.12,.81-2.6,3.42-2.1,5.2-3.02l-.17,2.81c-1.65,1.47-.91,3.43-.93,5.16-.14,14.29-.18,28.59-.26,42.88Z"/>
    <path class="cls-9" d="M162.76,183.89c1.84-1.32,3.8-1.94,6.01-.98,3.81,2.7,2.65,6.01,1.13,9.36-1.54,1.98-3.36,3.51-5.96,3.83-.43,.26-.86,.24-1.27-.05-.63-3.2,3.53-4.32,3.22-7.5-1.65-1.08-3.46,1.02-5.11-.14-2.76-3,.08-3.55,1.98-4.51Z"/>
    <path class="cls-14" d="M169.9,192.26c.97-3.28,1.08-6.46-1.13-9.36,4,.31,8,.63,12,.94,3.1,1.73,6.88,1.86,9.74,4.15-1.42,.11-3.09-.6-3.97,1.24-3.56-1.28-7.19-2.4-10.65-3.9-2.87-1.24-4.47-1.24-4.07,2.52,.18,1.77-.63,3.21-1.91,4.4Z"/>
    <path class="cls-15" d="M101.71,318.97c1.84-1.35,.75-3.34,1.09-5.02,2.04,4.84,4.09,9.69,6.13,14.53,.43,1.03,1.4,2.22,0,3.08-1.57,.96-2.63-.38-3.2-1.48-1.82-3.51-3.88-6.98-4.02-11.11Z"/>
    <path class="cls-18" d="M162.76,195.92c.39,.06,.78,.12,1.18,.17-1.18,3.78-3.48,.33-5.18,.81,.88-2.25,1.95-4.48,.75-7.06-1.47,1.03-.53,3.61-2.66,4.14,2.55-3.32-2.85-4.34-2.06-7.15-.13-.83,.23-1.17,1.04-1.09,.67,.27,1.42,1.07,1.87-.15,.04-.1-1.39,.11-2.01-.43-1.25-2.01,.32-3.4,1.08-4.97,.28-.36,.58-.7,.91-1.02,1.69,1.57,3.39,3.15,5.08,4.72-.25,1.57-3.61,1.65-1.98,4.13,2.15,2.26,.75,5.41,1.98,7.9Z"/>
    <path class="cls-11" d="M221.76,113.93c-7.6,.19-8.03,.67-8.11,9.11-3.58-3.06-4.08-6.59-1.24-10.31,2.41-3.15,6.03-2.59,9.35,1.2Z"/>
    <path class="cls-32" d="M129.96,161.57c.03,3.02-.43,5.98-1.26,8.88-.82-3.81-2.22-7.53-1.83-11.54,2.68-.5,.55-2.27,.84-3.4,.43-1.66-.97-4.02,1.95-4.62-2.48,3.63,.91,7.1,.3,10.68Z"/>
    <path class="cls-29" d="M164.73,305.86c-.13,3.71-.21,7.43-.39,11.14-.09,1.84-.44,3.74,2.35,3.72,.02,.86-.02,1.84-1.17,1.7-1.46-.18-2.53-1.32-2.56-2.65-.09-4.7-1.23-9.58,1.77-13.9Z"/>
    <path class="cls-40" d="M178.95,296.17c-.11,1.46-.42,2.89-2.06,2.87-1.77-.02-3.06-1.01-3.14-2.99-.07-1.71,.79-2.94,2.45-3.09,2.28-.22,2.31,1.78,2.76,3.22Z"/>
    <path class="cls-26" d="M198.57,226.97c-.64-.26-1.5-2.68-1.84,.16-.16,1.31-.14,2.64-.2,3.95-.55-2.24-1.19-4.47-1.59-6.73-.19-1.04-.72-2.64,.61-3.1,1.8-.62,1.88,1.41,2.56,2.37,.69,.98,.75,2.17,.47,3.35Z"/>
    <path class="cls-34" d="M179.75,271.36c-.33,1.18-1.05,2.31-2.3,2.17-1.33-.15-2.42-1.07-2.37-2.7,.05-1.43,.95-2.19,2.24-2.09,1.42,.12,2.43,.96,2.43,2.62Z"/>
    <path class="cls-20" d="M174.47,236.95c1.16,.28,2.3,.57,2.45,2.04,.14,1.48-.28,2.77-1.9,2.96-1.64,.19-2.32-1.08-2.45-2.48-.12-1.3,.68-2.12,1.9-2.52Z"/>
    <path class="cls-30" d="M80.21,179.03c.04-1.12,.77-1.73,1.82-1.92,1.11-.2,2.15,.29,2.21,1.38,.07,1.13-.47,2.37-1.94,2.36-1.05,0-1.83-.64-2.08-1.82Z"/>
    <path class="cls-42" d="M121.82,187.86c0,.37,0,.74,0,1.1-1.16,.97-2.24,2.1-3.93,2.09-.68-1.4-2.06-.9-3.15-1.17,2.32-.81,4.16-3.31,7.08-2.02Z"/>
    <path class="cls-15" d="M200.69,303.66c-.66,1.29-1.85,2.24-3.12,1.63-1.5-.73-.84-2.35-.26-3.46,.99-1.89-.54-4.39,1.57-5.93-.18,2.1-.31,4.21-.56,6.31-.28,2.32,1.01,1.9,2.37,1.46Z"/>
    <path class="cls-15" d="M101.69,307.86c-3.23-5.5-2.72-8.27,1.64-8.82-1.98,.43-3.09,1.25-2.34,3.63,.52,1.64,.49,3.45,.7,5.19Z"/>
    <path class="cls-15" d="M98.8,309.87c2.47,2.56,2.59,5.87,2.92,9.11-1.97-2.72-2.39-5.93-2.92-9.11Z"/>
    <path class="cls-30" d="M208.08,169.83c-.44,0-1.13-.39-1.17-1.32-.04-.92,.57-1.43,1.51-1.41,.89,.01,1.67,.45,1.72,1.3,.05,.86-.69,1.35-2.06,1.43Z"/>
    <path class="cls-4" d="M96.46,299c2.55-.06,2.36,1.78,2.36,3.45,0,1.99-.03,3.99-.05,5.98-1.66-2.93,.22-6.72-2.31-9.44Z"/>
    <path class="cls-22" d="M174.76,172.06c1.61-2.12,2.83-4.56,5.1-6.14-.8,2.8-2.1,5.17-5.1,6.14Z"/>
    <path class="cls-38" d="M108.86,240.9c-2.45,7.42-6.77,13.89-10.47,20.68-.44,.8-1.29,1.31-2.06,.86-.81-.48-.55-1.42-.23-2.24,.37-.93,.45-2.03,1.01-2.8,2.27-3.1,1.04-5.06-1.8-6.82-1.37-.85-2.55-1.99-3.25-3.6-.88-2.01,.52-2.22,1.79-2.63q6.23,7.34,10.83-1.12c.54-.99,.73-2.19,1.94-2.67,.34,2.68,1.63-.66,2.23,.35Z"/>
    <path class="cls-7" d="M138.79,229.8c-4.02-.85-7.08-3.31-9.99-6.02-2.41-2.37-3.63-5.77-6.82-7.48-.95-.51-.79-1.69-.27-2.63,1.24-1.44,.42-4.08,2.82-4.85,.84,.04,2.13-1.14,2.26,.84-.46,6.81,3.94,10.5,8.91,13.78,1.52,1,3.3,1.54,4.94,2.33,1.4,.67,3.77,1.1,3.02,3.19-.86,2.39-2.93,2.27-4.87,.85Z"/>
    <path class="cls-12" d="M121.71,213.66c1.67,3.86,6.04,5.83,7.09,10.12-.4-.28-.86-.5-1.19-.84-5.33-5.47-5.37-5.5-9.49,1.58-3.15,5.42-6.18,10.91-9.26,16.37-.8,.26-1.93,2.59-2.23-.35,3.93-9.57,9.4-18.29,15.08-26.88Z"/>
    <path class="cls-24" d="M160.87,170.86c-.9,.13-1.72,.08-2.09-.95-1-.77-.5-2.34-1.65-3.03-1.1-.58-2.62,.16-3.48-1.11,.66-1.37,2.12-1.47,3.27-2.09,.7-.38,1.49-.83,1.37-1.86-.11-.91-4.15-1.55-.53-2.51,2.72-.72,5.99-.48,8.61,1.37,.55,.39,.45,1.45-.27,1.65-4.43,1.24-3.24,5.85-5.23,8.54Z"/>
    <path class="cls-2" d="M157.68,179.16c0,.29,0,.58,0,.87-1.03,.97-2.08,1.89-3.65,1.32-1.48-2.49-3.15,.78-4.7-.15-1.28-.77-2.53-1.55-1.69-3.38,2.36-2.34,4.72-4.67,7.07-7.01,.42-.24,.8-.18,1.12,.19,.32,.69,.65,1.38,.97,2.06-3.74,2.61-2.03,4.44,.88,6.09Z"/>
    <path class="cls-5" d="M147.73,171.72c-5.16,3.43-6.18,9.12-7.85,14.45-1.36-1.95-1.66-4.08-1.14-6.37,1.24-5.1,3.77-9.13,9.01-10.94,.76,.95,.59,1.91,0,2.86Z"/>
    <path class="cls-1" d="M138.73,179.8c.47,2.1,1.62,4.09,1.14,6.37,.66,3.04-1.8,5.67-1.16,8.71,0,0,.02-.04,.02-.04-.84,1.14-1.68,2.28-3.28,4.45,.6-7.38,1.52-13.49,3.27-19.5Z"/>
    <path class="cls-25" d="M146.88,129.42c-.98,.12-1.65-.32-1.49-.99,.63-2.57,1.61-5.02,4.36-6.02,.93-.33,2.39,.02,1.99,1.25-.83,2.55-3.11,4.07-4.86,5.75Z"/>
    <path class="cls-21" d="M147.73,171.72c-.69-.95-.34-1.91,0-2.86,0,0-.04,.03-.04,.03,.69-3.57,4.52-1.09,6.01-3.12,0,0-.05,0-.05,0,1.35,.77,2.91-1.82,4.17,.27-.89,3.09-3.94,2.77-6.09,3.86-1.34,.59-2.3,2.03-4,1.82Z"/>
    <path class="cls-14" d="M166.81,143.97c.72-.65,.74-1.41,.23-2.16-.63-.91-2.75-1.22-1.23-2.94,.34-.38,1.24-.61,1.74-.46,1.44,.46,2.6,1.28,2.72,3.05,.11,1.72-.28,3.22-1.5,4.47-2.1,.79-2.81,.19-1.95-1.96Z"/>
    <path class="cls-5" d="M170.85,121.52c2.42,.42,3.65,1.77,4.7,3.23,.55,.77,2.12,1.67,.5,2.76-.85,.57-2.01,.37-2.57-.62-.91-1.61-2.93-2.68-2.64-5.37Z"/>
    <path class="cls-33" d="M153.78,180.93c1.3-.3,2.59-.6,3.89-.9,.53,1.99-2.06,2.78-1.79,4.67,.28,.25,.36,.48,.25,.71-.11,.22-.21,.33-.31,.33-.35,.36-.69,.73-1.04,1.09-.81-.03-1.65,0-2.15-.83-.54-1.24-1.12-2.47-.66-3.89,.35-.78,.8-1.4,1.81-1.18Z"/>
    <path class="cls-3" d="M150.6,130.47c1.59,.14,1.6,1.47,1.64,2.57,.04,1.13-.04,2.6-1.7,2.41-1.26-.15-1.86-1.29-1.92-2.56-.06-1.33,.48-2.24,1.97-2.42Z"/>
    <path class="cls-23" d="M152.73,182.05c-.03,1.31-.06,2.63-.09,3.94-2.2-2.39-7.02-3.18-5-8.16-.05,1.64,1.79,1.92,2.29,3.16,.78,.75,2.07,.17,2.8,1.06Z"/>
    <path class="cls-6" d="M174.43,133.13c-.43,1.07-.77,2.26-1.87,2.15-1.59-.15-1.86-1.56-1.81-2.9,.04-1.02,.54-2.1,1.6-2.05,1.71,.09,1.34,1.95,2.09,2.8Z"/>
    <path class="cls-22" d="M170.76,171.03c-3.37,3.23-6.67,1.47-9.97-.13,3.32,.04,6.65,.09,9.97,.13Z"/>
    <path class="cls-5" d="M153.7,165.77c-1.14,2.7-4.56,1-6.01,3.12-.67-.94-1.34-1.89-2.01-2.83,.87-2.8,2.26,0,3.36-.31l4.66,.03Z"/>
    <path class="cls-17" d="M149.05,165.75c-1.07,.66-2.35-1.05-3.36,.31-1.2-.78-3.11-1.72-2.12-3.19,1.16-1.71,2.07,.72,3.17,1.1,.87,.3,1.55,1.16,2.31,1.78Z"/>
    <path class="cls-27" d="M166.81,143.97c-.14,1.44,.5,2.1,1.95,1.96-.71,1.51-1.98,2.75-3.35,1.39-1.39-1.39-.06-2.62,1.39-3.35Z"/>
    <path class="cls-31" d="M161.69,94.41c-.83,0-1.66,.04-2.49-.02-.92-.07-2.26,.33-2.51-.91-.3-1.47,1.04-2.11,2.16-2.17,4.81-.25,8.86-2.49,12.96-4.66,1.32-.7,3.02-1.47,3.99,.1,.95,1.53-.44,2.91-1.57,3.79-3.66,2.88-7.92,4.02-12.55,3.87Z"/>
    <path class="cls-13" d="M199.06,250.62v-13.59c1.34,1.77-.2,4.34,1.66,5.9-1.8,2.29-.18,5.33-1.66,7.69Z"/>
    <path class="cls-28" d="M164.04,242.69v-8.76c.17-.02,.33-.04,.5-.06,.12,1.97,.24,3.95,.36,5.92-.29,.96,.18,2.16-.86,2.9Z"/>
    <path class="cls-11" d="M155.83,185.73c.02-.35,.04-.69,.06-1.04,1.79,.64,2.31-1.66,4.44-1.72-1.31,2.08-.95,5-3.58,5.5-1.56,.3-.52-1.81-.92-2.75Z"/>
    <path class="cls-8" d="M152.73,182.05c-1.07,.01-2.78,1.68-2.8-1.06,.6-.53,1.18-1.07,1.79-1.57,.69-.57,1.34-1.75,2.28-1.04,.36,.27-.12,1.67-.22,2.55-.35,.38-.7,.75-1.06,1.13Z"/>
    <path class="cls-30" d="M145.63,34.78c2.18-3.3,5.54-3.44,8.94-3.88s6.25-2.04,8.14-4.69c2.17-3.05,2.34-6.35,.8-9.08-2.79-4.96-6.01-6.5-10.96-4.99-2.08,.63-3.85,2.01-5.08,3.8-.02,.02-.03,.05-.05,.07-.3,.44-.61,.87-.98,1.25-1.22,1.31-1.6,3.6-4.11,2.1-2.89-1.73-5.22-4.53-4.69-8.51,6.36-11.18,19.11-14.13,29.76-6.89,9.49,6.44,11.47,19.23,4.32,27.98-2.48,3.04-5.87,4.77-9.34,6.43-6.1,2.91-7.42,5.37-6.85,12.2,.47,5.71,.21,5.89-7.76,5.45-4.89-5.1-4.15-11.34-3.34-17.5,.16-1.19,.78-2.48,1.19-3.72Z"/>
    <path class="cls-30" d="M100.63,61.64c2.22,2.27,3.25,4.83,2.39,8.12-.51,1.97-1.85,3.99-.36,6.19,.73,1.07,.74,2.34-.69,2.88-1.23,.46-2.19-.31-2.98-1.26-1.93-2.3-.67-4.75-.34-7.14,.28-2,2.07-4.18-.54-5.8-2.47-1.54-2.97,2.04-4.94,2.16-1.93-2.64-.28-4.55,1.57-5.86,1.88-1.33,4.15-1.06,5.89,.72"/>
    <path class="cls-30" d="M103.68,80.14c.65-.91,1.59-1.02,2.58-.6,1.04,.44,1.63,1.43,1.09,2.37-.57,.98-1.7,1.72-2.92,.9-.87-.58-1.17-1.54-.74-2.66Z"/>
    <path class="cls-30" d="M6.07,126.45c3.07,.78,5.29,2.43,6.27,5.69,.59,1.95,.49,4.37,2.91,5.47,1.18,.53,1.85,1.61,.91,2.82-.81,1.04-2.03,.87-3.21,.47-2.85-.96-3.05-3.71-4-5.92-.8-1.86-.41-4.65-3.48-4.67-2.91-.03-1.47,3.29-3.1,4.41-3.02-1.25-2.61-3.74-1.7-5.82,.92-2.11,2.99-3.06,5.4-2.45"/>
    <path class="cls-30" d="M18.29,140.67c.08-1.12,.83-1.7,1.89-1.85,1.11-.16,2.13,.37,2.16,1.46,.03,1.13-.56,2.35-2.03,2.29-1.04-.05-1.8-.71-2.02-1.89Z"/>
    <path class="cls-30" d="M263.47,138.76c-2.74,1.6-5.47,1.98-8.46,.35-1.79-.97-3.43-2.76-5.92-1.84-1.21,.45-2.45,.15-2.62-1.37-.15-1.31,.83-2.05,1.95-2.59,2.7-1.32,4.78,.5,7.01,1.4,1.88,.76,3.56,3.02,5.76,.88,2.09-2.03-1.26-3.37-.9-5.32,3.03-1.23,4.49,.83,5.3,2.94,.83,2.15,.02,4.28-2.13,5.54"/>
    <path class="cls-30" d="M244.78,137.23c.73,.86,.6,1.79-.04,2.64-.68,.9-1.78,1.24-2.56,.48-.81-.79-1.26-2.07-.17-3.05,.78-.7,1.78-.76,2.76-.07Z"/>
  </g>
</svg>